<svg width="154" height="130" viewBox="0 0 154 130" fill="none" xmlns="http://www.w3.org/2000/svg">
<path d="M116.803 112.846C131.935 103.372 136.302 83.0738 126.558 67.5091C116.813 51.9445 96.646 47.0071 81.5138 56.4811C66.3815 65.9552 62.0141 86.2531 71.7589 101.818C81.5036 117.382 101.67 122.32 116.803 112.846Z" fill="#263238"/>
<path opacity="0.8" d="M0 121.687L7.26087 120.376C7.26087 120.376 -0.463892 112.45 4.23551 107.579C8.93491 102.708 16.1353 107.014 16.1353 107.014C16.1353 107.014 15.0663 95.4271 24.0214 93.0068C32.9765 90.5866 40.8727 107.912 40.8727 107.912C40.8727 107.912 42.1837 103.878 48.8798 105.441C55.5759 107.004 60.8602 116.151 60.8602 116.151L143.806 121.697" fill="white"/>
<g opacity="0.8">
<path opacity="0.8" d="M10.0846 121.864L17.3454 120.553C17.3454 120.553 9.62067 112.627 14.3201 107.756C19.0195 102.885 26.2198 107.191 26.2198 107.191C26.2198 107.191 25.1509 95.6043 34.106 93.184C43.061 90.7637 50.9572 108.089 50.9572 108.089C50.9572 108.089 52.2682 104.055 58.9644 105.618C65.6605 107.181 70.9448 116.328 70.9448 116.328L153.89 121.875" fill="white"/>
<path opacity="0.8" d="M10.0845 121.864L17.3353 120.503C15.6917 118.924 14.3817 117.031 13.483 114.936C11.0829 110.025 14.4915 105.447 19.7254 105.285C22.0462 105.291 24.3258 105.899 26.3408 107.05L26.0786 107.212C25.9604 105.463 26.0757 103.706 26.4215 101.988C27.7123 94.253 35.669 89.5939 42.0828 95.332C46.1166 98.7104 48.8697 103.309 51.1589 107.988H50.7354C51.1802 106.941 52.0054 106.101 53.0447 105.638C58.3492 103.49 63.8856 107.131 67.2639 111.054C68.695 112.596 69.9343 114.306 70.9549 116.147L153.89 121.844L70.9347 116.459C70.8339 116.459 70.854 116.459 70.8036 116.378C69.6932 114.585 68.4206 112.897 67.0017 111.336C64.2285 108.24 60.5779 105.467 56.2415 105.487C54.2246 105.406 51.9455 106.233 51.1992 108.18L50.9975 108.654L50.7757 108.2C48.5067 103.611 45.7334 99.1238 41.8105 95.7253C37.575 91.8528 31.8672 92.6294 28.7006 97.3691C26.952 100.338 26.1696 103.778 26.4618 107.212V107.524L26.1896 107.373C24.232 106.243 22.0157 105.639 19.7556 105.618C16.4781 105.618 12.888 108.099 12.9687 111.619C13.0494 115.138 15.2377 118.103 17.4463 120.614H17.3757L10.1047 121.885L10.0845 121.864Z" fill="#263238"/>
</g>
<path d="M122.128 92.1384C126.147 78.4199 118.821 64.1977 105.764 60.3721C92.7067 56.5465 78.8635 64.5663 74.8442 78.2848C70.8248 92.0032 78.1513 106.226 91.2084 110.051C104.265 113.877 118.109 105.857 122.128 92.1384Z" fill="#A6A6A6"/>
<g filter="url(#filter0_i_7_13)">
<path d="M101.732 108.015C98.2562 110.224 95.0728 111.216 92.1814 110.992C89.308 110.687 87.0157 109.189 85.3047 106.497C84.0915 104.588 83.5233 102.612 83.6002 100.571C83.6949 98.4487 84.4145 96.4451 85.7591 94.5598L100.324 74.1706C100.805 73.5214 101.059 72.9477 101.086 72.4495C101.162 71.9202 101.029 71.3863 100.687 70.8479C100.407 70.4073 100.018 70.1735 99.5195 70.1465C99.0392 70.0395 98.5297 70.157 97.9913 70.4992L78.9003 82.6317C77.187 83.7205 75.6631 84.2423 74.3286 84.197C73.043 84.1206 72.0114 83.4705 71.2337 82.2467C69.616 79.7013 70.5694 77.3086 74.0939 75.0688L93.9926 62.423C97.2234 60.3698 100.251 59.5109 103.076 59.8462C105.869 60.1326 108.09 61.573 109.739 64.1674C111.045 66.2234 111.667 68.3368 111.603 70.5075C111.589 72.6472 110.909 74.6597 109.565 76.545L94.9992 96.9343C94.5005 97.6635 94.2132 98.2928 94.1373 98.8221C94.0302 99.3024 94.1167 99.7629 94.3967 100.203C94.6455 100.595 94.9946 100.82 95.4438 100.878C95.8931 100.936 96.338 100.825 96.7786 100.545L117.999 87.0595C121.475 84.8508 124.006 84.9946 125.592 87.4912C127.21 90.0366 126.281 92.4137 122.805 94.6225L101.732 108.015Z" fill="#FF4500"/>
</g>
<defs>
<filter id="filter0_i_7_13" x="67.8526" y="55.3301" width="60.166" height="63.6842" filterUnits="userSpaceOnUse" color-interpolation-filters="sRGB">
<feFlood flood-opacity="0" result="BackgroundImageFix"/>
<feBlend mode="normal" in="SourceGraphic" in2="BackgroundImageFix" result="shape"/>
<feColorMatrix in="SourceAlpha" type="matrix" values="0 0 0 0 0 0 0 0 0 0 0 0 0 0 0 0 0 0 127 0" result="hardAlpha"/>
<feOffset dy="4"/>
<feGaussianBlur stdDeviation="2"/>
<feComposite in2="hardAlpha" operator="arithmetic" k2="-1" k3="1"/>
<feColorMatrix type="matrix" values="0 0 0 0 0 0 0 0 0 0 0 0 0 0 0 0 0 0 0.25 0"/>
<feBlend mode="normal" in2="shape" result="effect1_innerShadow_7_13"/>
</filter>
</defs>
</svg>
